<svg xmlns="http://www.w3.org/2000/svg" viewBox="0 0 151.5 151.5"><defs><style>.cls-1{fill:#0057ff;}</style></defs><title>cross</title><g id="Calque_2" data-name="Calque 2"><g id="Calque_1-2" data-name="Calque 1"><path class="cls-1" d="M148.79,71.75h-69v-69A2.72,2.72,0,0,0,77,0H74.46a2.72,2.72,0,0,0-2.71,2.71v69h-69A2.72,2.72,0,0,0,0,74.46V77a2.72,2.72,0,0,0,2.71,2.71h69v69a2.72,2.72,0,0,0,2.71,2.71H77a2.72,2.72,0,0,0,2.71-2.71v-69h69A2.72,2.72,0,0,0,151.5,77V74.46A2.72,2.72,0,0,0,148.79,71.75Z"/></g></g></svg>