<svg xmlns="http://www.w3.org/2000/svg" viewBox="0 0 144.1 158.79"><defs><style>.cls-1{fill:#0057ff;}</style></defs><title>user</title><g id="Calque_2" data-name="Calque 2"><g id="Calque_1-2" data-name="Calque 1"><path class="cls-1" d="M72.05,86.26a43.76,43.76,0,0,0,40.54-28.35A43.18,43.18,0,0,0,49.89,6,43.65,43.65,0,0,0,29.6,50.88c3.6,20.5,21.95,35,42.45,35.38,4.83.08,4.83-7.42,0-7.5C57.21,78.5,43.61,69.43,38.51,55.3A35.68,35.68,0,0,1,90.43,12.51,36,36,0,0,1,107,50.2c-3.4,16.65-18.17,28.27-35,28.56C67.23,78.84,67.22,86.34,72.05,86.26Z"/><path class="cls-1" d="M144.1,155.17c-.08-15.45-2.52-31.63-11-44.83-7.7-11.92-19.65-19.82-33.17-23.71-28-8-66.81-4.93-85.91,19.63C3.2,120.13.09,138,0,155.17c0,4.82,7.47,4.83,7.5,0,.07-14,2.13-28.55,9.76-40.62,6.73-10.66,17.5-17.5,29.5-20.84,24.9-6.95,60.26-4.85,77.45,17.06,9.79,12.49,12.31,29,12.39,44.4,0,4.82,7.53,4.83,7.5,0Z"/></g></g></svg>